<svg viewBox="0 0 900 400" xmlns="http://www.w3.org/2000/svg">&gt;<defs><clipPath id="a"><path d="M29.344 32h847.874v340H29.344V32z" fill="none"></path></clipPath></defs><rect fill="none" height="12" width="40" x="395.216" y="10" stroke="#000" stroke-miterlimit="10" stroke-opacity=".1"></rect><rect fill="#FF6384" height="12" width="40" x="395.216" y="10" fill-opacity=".2"></rect><text dominant-baseline="central" fill="#666" font-family="'Helvetica Neue', 'Helvetica', 'Arial', sans-serif" font-size="12" text-decoration="normal" y="16" x="441.216"># of Votes</text><path d="M30.344 373v10m0-351v341" fill="none" paint-order="fill stroke markers" stroke="#000" stroke-miterlimit="10" stroke-opacity=".1"></path><text dominant-baseline="text-before-edge" fill="#666" font-family="'Helvetica Neue', 'Helvetica', 'Arial', sans-serif" font-size="12" text-decoration="normal" text-anchor="middle" transform="translate(100.344 382)">Red</text><path d="M171.344 373v10m0-351v341" fill="none" paint-order="fill stroke markers" stroke="#000" stroke-miterlimit="10" stroke-opacity=".1"></path><text dominant-baseline="text-before-edge" fill="#666" font-family="'Helvetica Neue', 'Helvetica', 'Arial', sans-serif" font-size="12" text-decoration="normal" text-anchor="middle" transform="translate(241.344 382)">Blue</text><path d="M312.344 373v10m0-351v341" fill="none" paint-order="fill stroke markers" stroke="#000" stroke-miterlimit="10" stroke-opacity=".1"></path><text dominant-baseline="text-before-edge" fill="#666" font-family="'Helvetica Neue', 'Helvetica', 'Arial', sans-serif" font-size="12" text-decoration="normal" text-anchor="middle" transform="translate(382.344 382)">Yellow</text><path d="M453.844 373v10m0-351v341" fill="none" paint-order="fill stroke markers" stroke="#000" stroke-miterlimit="10" stroke-opacity=".1"></path><text dominant-baseline="text-before-edge" fill="#666" font-family="'Helvetica Neue', 'Helvetica', 'Arial', sans-serif" font-size="12" text-decoration="normal" text-anchor="middle" transform="translate(524.344 382)">Green</text><path d="M595.344 373v10m0-351v341" fill="none" paint-order="fill stroke markers" stroke="#000" stroke-miterlimit="10" stroke-opacity=".1"></path><text dominant-baseline="text-before-edge" fill="#666" font-family="'Helvetica Neue', 'Helvetica', 'Arial', sans-serif" font-size="12" text-decoration="normal" text-anchor="middle" transform="translate(665.344 382)">Purple</text><path d="M736.344 373v10m0-351v341" fill="none" paint-order="fill stroke markers" stroke="#000" stroke-miterlimit="10" stroke-opacity=".1"></path><text dominant-baseline="text-before-edge" fill="#666" font-family="'Helvetica Neue', 'Helvetica', 'Arial', sans-serif" font-size="12" text-decoration="normal" text-anchor="middle" transform="translate(806.344 382)">Orange</text><path d="M29.344 372.5h848.874M18.344 32.5h11m0 0h848.874" fill="none" paint-order="fill stroke markers" stroke="#000" stroke-miterlimit="10" stroke-opacity=".1"></path><text dominant-baseline="central" fill="#666" font-family="'Helvetica Neue', 'Helvetica', 'Arial', sans-serif" font-size="12" text-decoration="normal" text-anchor="end" transform="translate(19.344 32)">20</text><path d="M18.344 66.5h11m0 0h848.874" fill="none" paint-order="fill stroke markers" stroke="#000" stroke-miterlimit="10" stroke-opacity=".1"></path><text dominant-baseline="central" fill="#666" font-family="'Helvetica Neue', 'Helvetica', 'Arial', sans-serif" font-size="12" text-decoration="normal" text-anchor="end" transform="translate(19.344 66)">18</text><path d="M18.344 100.5h11m0 0h848.874" fill="none" paint-order="fill stroke markers" stroke="#000" stroke-miterlimit="10" stroke-opacity=".1"></path><text dominant-baseline="central" fill="#666" font-family="'Helvetica Neue', 'Helvetica', 'Arial', sans-serif" font-size="12" text-decoration="normal" text-anchor="end" transform="translate(19.344 100)">16</text><path d="M18.344 134.5h11m0 0h848.874" fill="none" paint-order="fill stroke markers" stroke="#000" stroke-miterlimit="10" stroke-opacity=".1"></path><text dominant-baseline="central" fill="#666" font-family="'Helvetica Neue', 'Helvetica', 'Arial', sans-serif" font-size="12" text-decoration="normal" text-anchor="end" transform="translate(19.344 134)">14</text><path d="M18.344 168.5h11m0 0h848.874" fill="none" paint-order="fill stroke markers" stroke="#000" stroke-miterlimit="10" stroke-opacity=".1"></path><text dominant-baseline="central" fill="#666" font-family="'Helvetica Neue', 'Helvetica', 'Arial', sans-serif" font-size="12" text-decoration="normal" text-anchor="end" transform="translate(19.344 168)">12</text><path d="M18.344 202.5h11m0 0h848.874" fill="none" paint-order="fill stroke markers" stroke="#000" stroke-miterlimit="10" stroke-opacity=".1"></path><text dominant-baseline="central" fill="#666" font-family="'Helvetica Neue', 'Helvetica', 'Arial', sans-serif" font-size="12" text-decoration="normal" text-anchor="end" transform="translate(19.344 202)">10</text><path d="M18.344 236.5h11m0 0h848.874" fill="none" paint-order="fill stroke markers" stroke="#000" stroke-miterlimit="10" stroke-opacity=".1"></path><text dominant-baseline="central" fill="#666" font-family="'Helvetica Neue', 'Helvetica', 'Arial', sans-serif" font-size="12" text-decoration="normal" text-anchor="end" transform="translate(19.344 236)">8</text><path d="M18.344 270.5h11m0 0h848.874" fill="none" paint-order="fill stroke markers" stroke="#000" stroke-miterlimit="10" stroke-opacity=".1"></path><text dominant-baseline="central" fill="#666" font-family="'Helvetica Neue', 'Helvetica', 'Arial', sans-serif" font-size="12" text-decoration="normal" text-anchor="end" transform="translate(19.344 270)">6</text><path d="M18.344 304.5h11m0 0h848.874" fill="none" paint-order="fill stroke markers" stroke="#000" stroke-miterlimit="10" stroke-opacity=".1"></path><text dominant-baseline="central" fill="#666" font-family="'Helvetica Neue', 'Helvetica', 'Arial', sans-serif" font-size="12" text-decoration="normal" text-anchor="end" transform="translate(19.344 304)">4</text><path d="M18.344 338.5h11m0 0h848.874" fill="none" paint-order="fill stroke markers" stroke="#000" stroke-miterlimit="10" stroke-opacity=".1"></path><text dominant-baseline="central" fill="#666" font-family="'Helvetica Neue', 'Helvetica', 'Arial', sans-serif" font-size="12" text-decoration="normal" text-anchor="end" transform="translate(19.344 338)">2</text><path d="M18.344 372.5h11m0 0h848.874" fill="none" paint-order="fill stroke markers" stroke="#000" stroke-miterlimit="10" stroke-opacity=".25"></path><text dominant-baseline="central" fill="#666" font-family="'Helvetica Neue', 'Helvetica', 'Arial', sans-serif" font-size="12" text-decoration="normal" text-anchor="end" transform="translate(19.344 372)">0</text><path d="M29.844 32v341" fill="none" paint-order="fill stroke markers" stroke="#000" stroke-miterlimit="10" stroke-opacity=".1"></path><g clip-path="url(#a)"><g fill-opacity=".2" paint-order="fill stroke markers" stroke="#000" stroke-miterlimit="10" stroke-opacity=".1"><path d="M50.084 372V168.5h100.52V372" fill="#FF6384"></path><path d="M191.084 372V49.5h100.52V372" fill="#36A2EB"></path><path d="M332.084 372v-50.5h100.52V372" fill="#FFCE56"></path><path d="M474.084 372v-84.5h100.52V372" fill="#4BC0C0"></path><path d="M615.084 372v-33.5h100.52V372" fill="#96F"></path><path d="M756.084 372v-50.5h100.52V372" fill="#FF9F40"></path></g></g></svg>
