<svg viewBox="0 0 900 400" xmlns="http://www.w3.org/2000/svg">&gt;<defs><clipPath id="a"><path d="M29.344 32h847.658v340H29.344V32z" fill="none"></path></clipPath><clipPath id="b"><path d="M29.344 30.5h847.658v343H29.344v-343z" fill="none"></path></clipPath></defs><rect fill="none" height="12" width="40" x="395.324" y="10" stroke="#FF6384" stroke-miterlimit="10" stroke-width="3"></rect><rect fill="#FF6384" height="12" width="40" x="395.324" y="10" fill-opacity=".2"></rect><text dominant-baseline="central" fill="#666" font-family="'Helvetica Neue', 'Helvetica', 'Arial', sans-serif" font-size="12" text-decoration="normal" y="16" x="441.324">undefined</text><path d="M29.844 373v10m0-351v341" fill="none" paint-order="fill stroke markers" stroke="#000" stroke-miterlimit="10" stroke-opacity=".1"></path><text dominant-baseline="text-before-edge" fill="#666" font-family="'Helvetica Neue', 'Helvetica', 'Arial', sans-serif" font-size="12" text-decoration="normal" text-anchor="middle" transform="translate(29.344 382)">Running</text><path d="M312.844 373v10m0-351v341" fill="none" paint-order="fill stroke markers" stroke="#000" stroke-miterlimit="10" stroke-opacity=".1"></path><text dominant-baseline="text-before-edge" fill="#666" font-family="'Helvetica Neue', 'Helvetica', 'Arial', sans-serif" font-size="12" text-decoration="normal" text-anchor="middle" transform="translate(312.344 382)">Swimming</text><path d="M594.844 373v10m0-351v341" fill="none" paint-order="fill stroke markers" stroke="#000" stroke-miterlimit="10" stroke-opacity=".1"></path><text dominant-baseline="text-before-edge" fill="#666" font-family="'Helvetica Neue', 'Helvetica', 'Arial', sans-serif" font-size="12" text-decoration="normal" text-anchor="middle" transform="translate(594.344 382)">Eating</text><path d="M877.844 373v10m0-351v341" fill="none" paint-order="fill stroke markers" stroke="#000" stroke-miterlimit="10" stroke-opacity=".1"></path><text dominant-baseline="text-before-edge" fill="#666" font-family="'Helvetica Neue', 'Helvetica', 'Arial', sans-serif" font-size="12" text-decoration="normal" text-anchor="middle" transform="translate(877.344 382)">Cycling</text><path d="M29.344 372.5h848.658M18.344 32.5h11m0 0h848.658" fill="none" paint-order="fill stroke markers" stroke="#000" stroke-miterlimit="10" stroke-opacity=".1"></path><text dominant-baseline="central" fill="#666" font-family="'Helvetica Neue', 'Helvetica', 'Arial', sans-serif" font-size="12" text-decoration="normal" text-anchor="end" transform="translate(19.344 32)">20</text><path d="M18.344 70.278h11m0 0h848.658" fill="none" paint-order="fill stroke markers" stroke="#000" stroke-miterlimit="10" stroke-opacity=".1"></path><text dominant-baseline="central" fill="#666" font-family="'Helvetica Neue', 'Helvetica', 'Arial', sans-serif" font-size="12" text-decoration="normal" text-anchor="end" transform="translate(19.344 69.778)">18</text><path d="M18.344 108.056h11m0 0h848.658" fill="none" paint-order="fill stroke markers" stroke="#000" stroke-miterlimit="10" stroke-opacity=".1"></path><text dominant-baseline="central" fill="#666" font-family="'Helvetica Neue', 'Helvetica', 'Arial', sans-serif" font-size="12" text-decoration="normal" text-anchor="end" transform="translate(19.344 107.556)">16</text><path d="M18.344 145.833h11m0 0h848.658" fill="none" paint-order="fill stroke markers" stroke="#000" stroke-miterlimit="10" stroke-opacity=".1"></path><text dominant-baseline="central" fill="#666" font-family="'Helvetica Neue', 'Helvetica', 'Arial', sans-serif" font-size="12" text-decoration="normal" text-anchor="end" transform="translate(19.344 145.333)">14</text><path d="M18.344 183.611h11m0 0h848.658" fill="none" paint-order="fill stroke markers" stroke="#000" stroke-miterlimit="10" stroke-opacity=".1"></path><text dominant-baseline="central" fill="#666" font-family="'Helvetica Neue', 'Helvetica', 'Arial', sans-serif" font-size="12" text-decoration="normal" text-anchor="end" transform="translate(19.344 183.111)">12</text><path d="M18.344 221.389h11m0 0h848.658" fill="none" paint-order="fill stroke markers" stroke="#000" stroke-miterlimit="10" stroke-opacity=".1"></path><text dominant-baseline="central" fill="#666" font-family="'Helvetica Neue', 'Helvetica', 'Arial', sans-serif" font-size="12" text-decoration="normal" text-anchor="end" transform="translate(19.344 220.889)">10</text><path d="M18.344 259.167h11m0 0h848.658" fill="none" paint-order="fill stroke markers" stroke="#000" stroke-miterlimit="10" stroke-opacity=".1"></path><text dominant-baseline="central" fill="#666" font-family="'Helvetica Neue', 'Helvetica', 'Arial', sans-serif" font-size="12" text-decoration="normal" text-anchor="end" transform="translate(19.344 258.667)">8</text><path d="M18.344 296.944h11m0 0h848.658" fill="none" paint-order="fill stroke markers" stroke="#000" stroke-miterlimit="10" stroke-opacity=".1"></path><text dominant-baseline="central" fill="#666" font-family="'Helvetica Neue', 'Helvetica', 'Arial', sans-serif" font-size="12" text-decoration="normal" text-anchor="end" transform="translate(19.344 296.444)">6</text><path d="M18.344 334.722h11m0 0h848.658" fill="none" paint-order="fill stroke markers" stroke="#000" stroke-miterlimit="10" stroke-opacity=".1"></path><text dominant-baseline="central" fill="#666" font-family="'Helvetica Neue', 'Helvetica', 'Arial', sans-serif" font-size="12" text-decoration="normal" text-anchor="end" transform="translate(19.344 334.222)">4</text><path d="M18.344 372.5h11m0 0h848.658" fill="none" paint-order="fill stroke markers" stroke="#000" stroke-miterlimit="10" stroke-opacity=".1"></path><text dominant-baseline="central" fill="#666" font-family="'Helvetica Neue', 'Helvetica', 'Arial', sans-serif" font-size="12" text-decoration="normal" text-anchor="end" transform="translate(19.344 372)">2</text><path d="M29.844 32v341" fill="none" paint-order="fill stroke markers" stroke="#000" stroke-miterlimit="10" stroke-opacity=".1"></path><g clip-path="url(#a)"><path d="M29.344 32c113.2 75.556 163.628 125.036 283 188.889 106.628 57.036 165.47 82.167 282 113.333 109.47 29.278 169.8 22.667 283 37.778h-848z" fill="#FF6384" paint-order="stroke fill markers" fill-opacity=".2"></path></g><g clip-path="url(#b)"><path d="M29.344 32c113.2 75.556 163.628 125.036 283 188.889 106.628 57.036 165.47 82.167 282 113.333 109.47 29.278 169.8 22.667 283 37.778" fill="none" paint-order="fill stroke markers" stroke="#FF6384" stroke-miterlimit="10" stroke-width="3"></path></g><path d="M32.344 32a3 3 0 110-.003zM315.344 220.889a3 3 0 110-.003zM597.344 334.222a3 3 0 110-.003z" fill="#FF6384" paint-order="fill stroke markers" stroke="#FF6384" stroke-miterlimit="10" fill-opacity=".2"></path><g><path d="M880.344 372a3 3 0 110-.003z" fill="#FF6384" paint-order="fill stroke markers" stroke="#FF6384" stroke-miterlimit="10" fill-opacity=".2"></path></g></svg>
